<?xml version="1.0" encoding="utf-8"?>
<!-- Generator: Adobe Illustrator 18.1.1, SVG Export Plug-In . SVG Version: 6.00 Build 0)  -->
<!DOCTYPE svg PUBLIC "-//W3C//DTD SVG 1.1//EN" "http://www.w3.org/Graphics/SVG/1.1/DTD/svg11.dtd">
<svg version="1.1" id="Layer_1" xmlns="http://www.w3.org/2000/svg" xmlns:xlink="http://www.w3.org/1999/xlink" x="0px" y="0px"
	 viewBox="-2279.9 721.8 512 512" enable-background="new -2279.9 721.8 512 512" xml:space="preserve">
<g id="Your_Icon">
	<path d="M-2083.4,851.5l1.6-5.4h4.1c4,0,7.5-4.7,8.7-8.5l2.9-10.1l9.1-2.5c3.4-0.7,6.1-3.6,6.9-7c0.9-3.4-0.3-7.1-2.9-9.3
		l-11.3-11.2c-1.7-1.4-3.8-3.7-6-3.7h-14.9c-5.1,0-10.6,7-10.6,12v9.7l-11.3,16.2c-1.1,1.5-1.3,3.2-1.4,5l-10.8,1.7
		c-4.7,0.7-8,4.9-7.6,9.7c0.4,4.8,4.4,8.4,9.2,8.4h25.4C-2088,856.6-2084.3,855.7-2083.4,851.5z"/>
	<path d="M-1874.4,1000.1l-7.1-3.5c-2.3-1.1-4.9-1.2-7.2-0.3c-2.4,0.9-4.2,2.7-5.2,5l-7.1,17.2c-1.8,4.3-0.1,9.2,3.9,11.5l8.6,4.9
		c1.4,0.8,3,1.2,4.5,1.2c1.6,0,2.6-0.4,4-1.2c2.8-1.6,4-4.7,4-7.9v-6.4l5-7.6c1.3-2.2,1.9-4.8,1.1-7.3
		C-1870.7,1003.2-1872.1,1001.2-1874.4,1000.1z"/>
	<path d="M-2023.9,721.8c-141.2,0-256,114.8-256,256s114.8,256,256,256c141.2,0,256-114.8,256-256S-1882.7,721.8-2023.9,721.8z
		 M-1985.3,1175.2c0.2-0.2,0.4-0.4,0.6-0.6l26.9-30.9c2.6-3.6,2.2-8.5-0.8-11.7c0,0-8.1-4.3-11.8-8.2c-1.8-1.9-3.9-4.6-1.9-9.5
		c3-7.3,34.7-30.7,34.7-30.7c1.7-2,2.4-4.6,2.1-7.1c-0.4-2.6-1.8-4.9-3.9-6.3c0,0-28.8-18.5-34.7-23.5c-5.9-4.9-10.4-28.6-10.4-28.6
		c-1.1-2.9-3.6-5.1-6.6-5.8l-20.6-4.6c-2.9-0.6-5.9,0.2-8.1,2.2c-1.1,1-0.6,3.6-9.7,3.6c-9.1,0-18.2-7.3-18.2-7.3
		c-1.5-0.4-3.1-0.5-4.7-0.1l-9.8,2.3l-25.3-6.3c-2.5-0.6-5.1-0.2-7.3,1.3l-34.7,24c-2.6,1.7-2.8,4.5-2.8,7.6v31.4
		c0,4.3,1.7,8,5.9,8.9c0,0,52.1,13.9,59.3,19.1c7.2,5.1,43.7,47.2,43.7,51.7s-10.4,9.2-10.4,9.2c-2.6,1.7-4.2,4.6-4.2,7.7
		c0,3.1,1.5,6,4.1,7.7l12.7,8.3c-0.8,0-1.7,0.1-2.5,0.1c-110.9,0-201.2-90.2-201.2-201.1c0-45.7,15.3-87.8,41-121.6l11.1,8.7
		c1.6,1.3,3.6,2,5.7,2c0.7,0,1.5-0.1,2.2-0.3c2.7-0.7,5-2.6,6.2-5.2l8.3-18.7c1.3-2.8,1-5.9-0.7-8.5c-1.7-2.6-4.6-3.9-7.7-3.9h-1.2
		c9.4-5.2,19.6-16.6,30.5-23.4c-2.8,3.1-3.3,7.7-0.8,11.2c1.8,2.5,4.6,3.8,7.5,3.8c1.5,0,3.1-0.4,4.5-1.2l12.6-7
		c4.3-2.4,5.9-7.7,3.7-12.1l-3.8-7.5c25.1-11.2,52.8-17.6,82-17.6c22.3,0,43.8,3.7,63.9,10.5l-7,11.6l-8.7,10.3
		c-1.8,2.1-2.5,4.9-2,7.7c0.5,2.7,0.4,5.1,2.8,6.3l4.6,3.4v6.3c0,2.9,3.3,5.6,5.6,7.3l5,2.4l-0.7,8.9h-12.3c-4,0-7.4,0-8.6,5.2h-1.7
		c-4.4,0-8.2,4.2-9,8.5l-1,6l-2.4,0.5l-14.4-7.5c-3.3-1.7-7.3-1.3-10.2,1.1c-2.9,2.4-4,6.3-2.8,9.8l4.4,13.6
		c0.8,2.4,2.5,4.4,4.8,5.5l9.2,4.3l-1.2,5.6c0,0-9.2,1-12.9,6.5s2,14-3.8,15s-26-15.4-26-15.4c-3-1.2-6.4-0.6-9,1.4
		c-2.5,2-2.6,11.1-2.2,14.3c0,0,0.5-11,0.1,0.5c-0.4,11.6-39.5,28.6-39.5,28.6l-5.6,5.7c-1.8,1.9-2.8,4.4-2.6,7
		c0.2,2.6,1.4,5,3.5,6.6l5.1,4c1.7,1.3,3.7,1.9,5.6,1.9c2.7,0,5.4-1.2,7.2-3.5l7.7-9.7c0.7-0.9,1.2-1.9,1.5-2.9
		c0.9-0.1,1.8-0.4,2.7-0.8l14.4-6.8l8.7,4c4.4,2,9.6,0.2,11.9-4.1c0,0,5-4.8,9-5.1c3.7,0,4,4.3,5.3,9.3c1.3,4.9,3.4,10.5,3.6,12.9
		c2,2.4,5.1,3.6,8.2,3.1c3.1-0.4,5.7-2.4,7.1-5.2l11.2-24.2c0,0,3.9-13.7,9.7-13.2c5.7,0.6,17,11.7,17,11.7s4,3.8,1.9,8.9
		c-2.1,5.1-16.6,7.3-16.6,7.3c-4,1.7-6.2,6-5.3,10.2c0.9,4.2,4.9,5.6,8.9,7.3c4.1,1.7,5.3,2,11,4.9c5.7,2.9-5.6,7.6-6.2,14.6
		c-0.6,7,13.6,26.4,17.5,29.5c6.4,5.3,26.1,13.5,26.1,13.5c1.3,0.6,2.7,1,4.1,1c2.3,0,4.5-0.9,6.3-2.5l9.7-9.1
		c2-1.9,3.1-4.6,2.8-7.3c-0.2-2.8-1.6-5.3-3.9-6.8l-20.3-14l17.2-18.2l8.5,1.8c3.4,0.7,6.9-0.5,9-3.2l9.6-11.8l11.3,0.8
		c2.1,0.2,4.2-0.4,5.9-1.6l0.5-0.3l11.9,8.3c2.8,2,6.5,2.2,9.6,0.6c3-1.6,4.9-4.8,4.8-8.2l-0.5-26.9l12.6-25.2
		c5.6,18.5,8.7,38.2,8.7,58.5C-1822.7,1075.5-1892.8,1157.1-1985.3,1175.2z"/>
</g>
</svg>
