<?xml version="1.0" encoding="utf-8"?>
<!-- Generator: Adobe Illustrator 18.1.1, SVG Export Plug-In . SVG Version: 6.00 Build 0)  -->
<!DOCTYPE svg PUBLIC "-//W3C//DTD SVG 1.1//EN" "http://www.w3.org/Graphics/SVG/1.1/DTD/svg11.dtd">
<svg version="1.1" id="Capa_1" xmlns="http://www.w3.org/2000/svg" xmlns:xlink="http://www.w3.org/1999/xlink" x="0px" y="0px"
	 viewBox="-489.2 28.1 512 512" enable-background="new -489.2 28.1 512 512" xml:space="preserve">
<g>
	<g>
		<g>
			<path d="M-233.2,335.4c28.2,0,51.3-23,51.3-51.2c0-11.2-3.7-21.5-9.7-29.9c-9.3-12.9-24.4-21.4-41.5-21.4
				c-17.1,0-32.2,8.5-41.6,21.4c-6.1,8.4-9.7,18.7-9.7,29.9C-284.4,312.4-261.4,335.4-233.2,335.4z"/>
			<polygon points="-121.3,221.4 -121.3,178.4 -121.3,172.1 -127.7,172.1 -170.6,172.2 -170.5,221.6 			"/>
			<path d="M-233.2,28.1c-141.2,0-256,114.8-256,256c0,141.1,114.8,256,256,256c141.1,0,256-114.9,256-256
				C22.8,142.9-92,28.1-233.2,28.1z M-87.6,254.2v119.2c0,31-25.2,56.3-56.3,56.3h-178.6c-31,0-56.3-25.2-56.3-56.3V254.2v-59.4
				c0-31,25.2-56.3,56.3-56.3h178.6c31,0,56.3,25.2,56.3,56.3V254.2z"/>
			<path d="M-153.5,284.1c0,43.9-35.7,79.6-79.6,79.6s-79.6-35.7-79.6-79.6c0-10.6,2.1-20.7,5.9-29.9h-43.5v119.2
				c0,15.4,12.5,27.9,27.9,27.9h178.6c15.4,0,27.9-12.5,27.9-27.9V254.2h-43.5C-155.7,263.4-153.5,273.5-153.5,284.1z"/>
		</g>
	</g>
</g>
</svg>
