<?xml version="1.0" encoding="utf-8"?>
<!-- Generator: Adobe Illustrator 18.1.1, SVG Export Plug-In . SVG Version: 6.00 Build 0)  -->
<!DOCTYPE svg PUBLIC "-//W3C//DTD SVG 1.1//EN" "http://www.w3.org/Graphics/SVG/1.1/DTD/svg11.dtd">
<svg version="1.1" id="Layer_1" xmlns="http://www.w3.org/2000/svg" xmlns:xlink="http://www.w3.org/1999/xlink" x="0px" y="0px"
	 viewBox="0 0 512 446.6" enable-background="new 0 0 512 446.6" xml:space="preserve">
<path fill-rule="evenodd" clip-rule="evenodd" d="M53.3,0h405.3C488.1,0,512,23.9,512,53.3s-23.9,53.3-53.3,53.3H53.3
	C23.9,106.7,0,82.8,0,53.3S23.9,0,53.3,0z"/>
<path fill-rule="evenodd" clip-rule="evenodd" d="M53.3,170h405.3c29.5,0,53.3,23.9,53.3,53.3s-23.9,53.3-53.3,53.3H53.3
	C23.9,276.6,0,252.8,0,223.3S23.9,170,53.3,170z"/>
<path fill-rule="evenodd" clip-rule="evenodd" d="M53.3,339.9h405.3c29.5,0,53.3,23.9,53.3,53.3s-23.9,53.3-53.3,53.3H53.3
	C23.9,446.6,0,422.7,0,393.3S23.9,339.9,53.3,339.9z"/>
</svg>
