<?xml version="1.0" encoding="utf-8"?>
<!-- Generator: Adobe Illustrator 18.1.1, SVG Export Plug-In . SVG Version: 6.00 Build 0)  -->
<!DOCTYPE svg PUBLIC "-//W3C//DTD SVG 1.1//EN" "http://www.w3.org/Graphics/SVG/1.1/DTD/svg11.dtd">
<svg version="1.1" id="Layer_1" xmlns="http://www.w3.org/2000/svg" xmlns:xlink="http://www.w3.org/1999/xlink" x="0px" y="0px"
	 viewBox="-206 -202.8 512 506.7" enable-background="new -206 -202.8 512 506.7" xml:space="preserve">
<path d="M274,15.8h-37.9l22.6-22.8c30.2-30.2-19.3-78.6-49-48.8l-71.6,71.6H82v-54l72.8-71.6c30.1-30.1-19.5-79.2-49.7-49L82-136.3
	v-34.6c0-42.7-64-42.7-64,0v34.6l-24-22.5c-29.9-30-78.8,18.6-48.4,49L18-38.2v54h-56.4L-110-56c-29.8-29.8-79.2,19.2-49,49.3
	l22.5,22.5H-174c-42.7,0-42.7,69.3,0,69.3h37.5l-22.6,22.3c-30,30,18.2,80.2,49,49.3l71.6-71.7H18v53.2l-73,71.6
	c-30.1,30.1,19.4,79.3,49.7,49L18,236.4v35.4c0,42.7,64,42.7,64,0v-35.4l23.8,22.6c30.1,30.1,78.5-18.9,48.4-49L82,138.3V85.2h56.1
	l71.6,71.4c30.5,30.5,79.3-18.5,49-48.7l-22.6-22.7H274C316.7,85.2,316.7,15.8,274,15.8z"/>
</svg>
