<?xml version="1.0" encoding="utf-8"?>
<!-- Generator: Adobe Illustrator 18.1.1, SVG Export Plug-In . SVG Version: 6.00 Build 0)  -->
<!DOCTYPE svg PUBLIC "-//W3C//DTD SVG 1.1//EN" "http://www.w3.org/Graphics/SVG/1.1/DTD/svg11.dtd">
<svg version="1.1" id="Capa_1" xmlns="http://www.w3.org/2000/svg" xmlns:xlink="http://www.w3.org/1999/xlink" x="0px" y="0px"
	 viewBox="27.5 -81.9 512 727.2" enable-background="new 27.5 -81.9 512 727.2" xml:space="preserve">
<g>
	<circle fill="#030104" cx="320" cy="-15" r="66.9"/>
	<path fill="#030104" d="M227.5,101.1c2.5-17,15.7-27.2,25.3-24.5l69.8,19.5c9.6,2.7,12.9,25,10.2,34.7l-57.5,236.1
		c-2.8,9.7-8.6,14.5-18.2,11.7l-47.2-10.2c-38-31.3-37.8-58.5-30-96.1L227.5,101.1z"/>
	<path fill="#030104" d="M167.6,372.4l-12,83.6c0,0-30.8,73.1-51.9,116c-16,32.5-23.5,56-12.5,61.8c16.9,9,39.5-11.1,63.3-48.2
		c39.8-62.1,60.3-93.1,68-108.2l12-39.4C234.5,438.1,175.4,398.9,167.6,372.4z"/>
	<path fill="#030104" d="M379,407l-93.1-92.5c-14.7-14.8-36.6-7.8-51.5,6.9c-14.8,14.6-43.9,28.4-29.2,43.3l118.5,99.7l-13.1,127.8
		c-1,31.5,0.9,49.8,20.9,51.9c18.7,1.9,26.9-36.9,28.9-46.8c0,0,23.9-122.4,26.8-139.7C390,440.4,391.7,420.1,379,407z"/>
	<path fill="#030104" d="M491.6,132.8l-70.2,33l-88.5-64.6c-14-10.2-33.8-7-44,7.1c-10.2,14.1-7,33.7,7.1,44l95.4,69.1
		c9,6.5,22.8,9.8,32.9,5.5c0,0,65.5-39.8,83.1-51.2c18.4-12.1,37.7-27.9,30.6-41.2C527.9,115.3,509.5,124.2,491.6,132.8z"/>
	<path fill="#030104" d="M489.2,645.3c-6.4,0-11.6-5.2-11.6-11.6V97.9c0-6.4,5.2-11.6,11.6-11.6c6.4,0,11.6,5.2,11.6,11.6v535.8
		C500.8,640.1,495.6,645.3,489.2,645.3z"/>
	<path fill="#030104" d="M194.6,98.4c0,0-41.9,129.9-48.2,150.5s-28.5,35-59.8,25.4c-31.3-9.6-63.7-22.7-58.7-59.2
		c5.6-39.8,43.2-92.7,75.8-126.7C136.4,54.4,210.9,42.6,194.6,98.4z"/>
</g>
</svg>
