<?xml version="1.0" encoding="utf-8"?>
<!-- Generator: Adobe Illustrator 18.1.1, SVG Export Plug-In . SVG Version: 6.00 Build 0)  -->
<!DOCTYPE svg PUBLIC "-//W3C//DTD SVG 1.1//EN" "http://www.w3.org/Graphics/SVG/1.1/DTD/svg11.dtd">
<svg version="1.1" id="Capa_1" xmlns="http://www.w3.org/2000/svg" xmlns:xlink="http://www.w3.org/1999/xlink" x="0px" y="0px"
	 viewBox="-441.1 28.1 512 512" enable-background="new -441.1 28.1 512 512" xml:space="preserve">
<g>
	<g>
		<polygon points="-306.6,302.9 -286.3,302.9 -286.3,412.8 -267.1,412.8 -267.1,302.9 -246.5,302.9 -246.5,285 -306.6,285 		"/>
		<path d="M-144.3,316.4c-6.3,0-12.3,3.5-17.8,10.3V285h-17.3v127.9h17.3v-9.2c5.8,7.1,11.7,10.5,17.8,10.5
			c6.9,0,11.5-3.6,13.8-10.7c1.2-4,1.7-10.4,1.7-19.2v-37.9c0-9-0.6-15.3-1.7-19.1C-132.8,320-137.4,316.4-144.3,316.4z M-146,385.6
			c0,8.6-2.5,12.9-7.5,12.9c-2.8,0-5.7-1.4-8.6-4.2v-58.1c2.9-2.9,5.8-4.2,8.6-4.2c5,0,7.5,4.4,7.5,13V385.6z"/>
		<path d="M-211.6,390.3c-3.8,5.4-7.4,8.1-10.9,8.1c-2.3,0-3.6-1.4-4-4c-0.2-0.6-0.2-2.7-0.2-6.7v-70.1H-244v75.3
			c0,6.7,0.6,11.3,1.5,14.2c1.7,4.8,5.6,7.1,11.1,7.1c6.4,0,12.9-3.8,19.7-11.7v10.4h17.3v-95.3h-17.3V390.3z"/>
		<path d="M-196.8,229.5c5.6,0,8.3-4.5,8.3-13.4v-40.5c0-8.9-2.7-13.3-8.3-13.3c-5.6,0-8.3,4.4-8.3,13.3v40.5
			C-205.1,225.1-202.4,229.5-196.8,229.5z"/>
		<path d="M-185.1,28.1c-141.4,0-256,114.6-256,256s114.6,256,256,256s256-114.6,256-256S-43.7,28.1-185.1,28.1z M-156.7,147.8h17.4
			v70.9c0,4.1,0,6.2,0.2,6.8c0.4,2.7,1.8,4.1,4.1,4.1c3.5,0,7.1-2.7,11-8.2v-73.6h17.4v96.3h-17.4v-10.5c-6.9,8-13.6,11.8-19.9,11.8
			c-5.6,0-9.5-2.3-11.2-7.1c-1-2.9-1.5-7.5-1.5-14.3V147.8L-156.7,147.8z M-222.5,179.2c0-10.3,1.7-17.8,5.5-22.7
			c4.8-6.6,11.6-9.9,20.3-9.9c8.7,0,15.5,3.3,20.3,9.9c3.7,4.9,5.4,12.4,5.4,22.7v33.7c0,10.2-1.7,17.8-5.4,22.6
			c-4.8,6.6-11.6,9.9-20.3,9.9c-8.7,0-15.5-3.3-20.3-9.9c-3.7-4.8-5.5-12.4-5.5-22.6V179.2z M-269.2,114.9l13.7,50.7l13.2-50.7h19.6
			l-23.3,76.9v52.3h-19.3v-52.3c-1.8-9.3-5.6-22.9-11.8-40.9c-4.1-12-8.3-24-12.4-36C-289.5,114.9-269.2,114.9-269.2,114.9z
			 M-47.3,421.2c-3.5,15.2-15.9,26.4-30.9,28.1c-35.4,4-71.3,4-107,4c-35.7,0-71.5,0-107-4c-15-1.7-27.4-12.9-30.9-28.1
			c-5-21.6-5-45.2-5-67.5c0-22.3,0.1-45.9,5-67.5c3.5-15.2,15.9-26.4,30.9-28.1c35.4-4,71.3-4,107-4c35.7,0,71.5,0,107,4
			c15,1.7,27.4,12.9,30.9,28.1c5,21.6,4.9,45.2,4.9,67.5C-42.3,376-42.3,399.6-47.3,421.2z"/>
		<path d="M-89.3,316.4c-8.8,0-15.7,3.2-20.7,9.8c-3.7,4.8-5.3,12.3-5.3,22.4V382c0,10.1,1.9,17.6,5.5,22.4c5,6.5,11.9,9.8,20.9,9.8
			c9,0,16.1-3.4,20.9-10.3c2.1-3.1,3.5-6.5,4-10.3c0.2-1.7,0.4-5.6,0.4-11.1v-2.5h-17.6c0,6.9-0.2,10.8-0.4,11.7
			c-1,4.6-3.5,6.9-7.7,6.9c-5.9,0-8.8-4.4-8.8-13.2v-16.9h34.5v-19.7c0-10.2-1.7-17.6-5.3-22.4C-73.8,319.6-80.6,316.4-89.3,316.4z
			 M-80.9,353.9h-17.3v-8.8c0-8.8,2.9-13.2,8.7-13.2c5.7,0,8.6,4.4,8.6,13.2V353.9z"/>
	</g>
</g>
</svg>
